<?xml version="1.0" standalone="no"?>
<!DOCTYPE svg PUBLIC "-//W3C//DTD SVG 20010904//EN"
 "http://www.w3.org/TR/2001/REC-SVG-20010904/DTD/svg10.dtd">
<svg version="1.0" xmlns="http://www.w3.org/2000/svg"
 width="256.000000pt" height="256.000000pt" viewBox="0 0 256.000000 256.000000"
 preserveAspectRatio="xMidYMid meet">

<g transform="translate(0.000000,256.000000) scale(0.100000,-0.100000)"
fill="#000000" stroke="none">
<path d="M998 1616 c-24 -30 -50 -70 -59 -88 -33 -68 -49 -109 -49 -127 0 -10
-14 -61 -31 -113 -54 -169 -97 -351 -87 -370 17 -34 108 -17 108 20 0 34 42
198 61 238 10 23 19 45 19 51 0 21 75 192 131 299 69 131 68 144 -7 144 -41 0
-46 -3 -86 -54z"/>
<path d="M2083 1608 c-4 -7 -19 -37 -33 -66 l-25 -53 -114 -3 c-98 -2 -115 -4
-127 -21 -34 -46 -2 -65 112 -65 l74 0 -21 -42 c-24 -48 -86 -133 -127 -177
-15 -15 -44 -47 -66 -70 -37 -40 -129 -113 -172 -138 -21 -11 -21 -9 -27 95
-4 94 -8 108 -27 124 -42 34 -79 22 -193 -58 l-45 -32 40 85 c88 187 55 210
-113 82 -174 -133 -264 -214 -274 -246 -11 -39 17 -27 101 43 78 65 154 112
154 96 0 -24 -35 -120 -51 -141 -10 -13 -19 -30 -19 -38 0 -7 -9 -32 -20 -54
-27 -53 -19 -79 23 -78 26 0 40 11 75 52 96 117 112 133 148 154 34 18 44 19
73 10 32 -11 35 -16 47 -75 7 -35 18 -70 25 -78 31 -37 111 0 219 101 130 122
123 122 84 1 -40 -125 -42 -142 -11 -149 59 -15 112 14 296 162 125 102 115
105 126 -29 7 -73 17 -108 39 -122 19 -13 74 -8 125 11 66 25 179 119 180 149
1 26 -10 28 -32 5 -8 -10 -40 -31 -71 -48 -53 -29 -55 -29 -75 -11 -27 25 -44
110 -31 156 16 56 12 88 -11 100 -39 22 -91 -6 -199 -106 -108 -100 -240 -193
-240 -169 0 12 93 277 122 348 25 61 36 77 53 77 32 0 65 28 65 56 0 13 -6 24
-12 24 -36 1 -39 16 -13 73 15 31 24 61 20 67 -9 14 -42 13 -52 -2z"/>
<path d="M2379 1559 c-45 -49 -56 -78 -39 -108 18 -35 69 -28 110 14 28 29 34
42 34 82 1 47 0 48 -32 51 -29 3 -40 -3 -73 -39z"/>
</g>
</svg>
